M48
; DRILL file {KiCad 9.0.3} date 2025-07-30T12:59:05-0700
; FORMAT={-:-/ absolute / metric / decimal}
; #@! TF.CreationDate,2025-07-30T12:59:05-07:00
; #@! TF.GenerationSoftware,Kicad,Pcbnew,9.0.3
; #@! TF.FileFunction,Plated,1,2,PTH
FMAT,2
METRIC
; #@! TA.AperFunction,Plated,PTH,ComponentDrill
T1C0.700
; #@! TA.AperFunction,Plated,PTH,ComponentDrill
T2C0.889
; #@! TA.AperFunction,Plated,PTH,ComponentDrill
T3C1.210
; #@! TA.AperFunction,Plated,PTH,ComponentDrill
T4C1.500
%
G90
G05
T1
X104.76Y-139.8
X109.84Y-139.8
X117.12Y-156.8
X122.2Y-156.8
X131.7Y-166.02
X131.7Y-171.1
X150.7Y-166.63
X155.78Y-166.63
T2
X130.28Y-129.88
X130.28Y-132.42
X130.28Y-134.96
X130.28Y-137.5
X130.28Y-140.04
X130.28Y-142.58
X130.28Y-145.12
X145.52Y-129.88
X145.52Y-132.42
X145.52Y-134.96
X145.52Y-137.5
X145.52Y-140.04
X145.52Y-142.58
X145.52Y-145.12
T3
X106.3Y-147.8
X108.84Y-147.8
X118.06Y-164.8
X120.6Y-164.8
X140.2Y-167.22
X140.2Y-169.76
X153.2Y-157.56
X153.2Y-160.1
T4
X84.91Y-151.26
X85.01Y-130.96
X91.26Y-148.72
X91.36Y-128.42
X115.91Y-109.06
X122.26Y-106.52
X136.61Y-108.96
X142.96Y-106.42
M30
