%TF.GenerationSoftware,KiCad,Pcbnew,9.0.3*%
%TF.CreationDate,2025-07-30T12:58:10-07:00*%
%TF.ProjectId,apollo_pcb,61706f6c-6c6f-45f7-9063-622e6b696361,rev?*%
%TF.SameCoordinates,Original*%
%TF.FileFunction,Legend,Top*%
%TF.FilePolarity,Positive*%
%FSLAX46Y46*%
G04 Gerber Fmt 4.6, Leading zero omitted, Abs format (unit mm)*
G04 Created by KiCad (PCBNEW 9.0.3) date 2025-07-30 12:58:10*
%MOMM*%
%LPD*%
G01*
G04 APERTURE LIST*
%ADD10C,0.150000*%
%ADD11C,0.101600*%
%ADD12C,0.120000*%
%ADD13C,0.127000*%
%ADD14C,0.200000*%
%ADD15C,0.100000*%
%ADD16C,0.504000*%
G04 APERTURE END LIST*
D10*
X87486667Y-126033200D02*
X87629524Y-126080819D01*
X87629524Y-126080819D02*
X87867619Y-126080819D01*
X87867619Y-126080819D02*
X87962857Y-126033200D01*
X87962857Y-126033200D02*
X88010476Y-125985580D01*
X88010476Y-125985580D02*
X88058095Y-125890342D01*
X88058095Y-125890342D02*
X88058095Y-125795104D01*
X88058095Y-125795104D02*
X88010476Y-125699866D01*
X88010476Y-125699866D02*
X87962857Y-125652247D01*
X87962857Y-125652247D02*
X87867619Y-125604628D01*
X87867619Y-125604628D02*
X87677143Y-125557009D01*
X87677143Y-125557009D02*
X87581905Y-125509390D01*
X87581905Y-125509390D02*
X87534286Y-125461771D01*
X87534286Y-125461771D02*
X87486667Y-125366533D01*
X87486667Y-125366533D02*
X87486667Y-125271295D01*
X87486667Y-125271295D02*
X87534286Y-125176057D01*
X87534286Y-125176057D02*
X87581905Y-125128438D01*
X87581905Y-125128438D02*
X87677143Y-125080819D01*
X87677143Y-125080819D02*
X87915238Y-125080819D01*
X87915238Y-125080819D02*
X88058095Y-125128438D01*
X88391429Y-125080819D02*
X88629524Y-126080819D01*
X88629524Y-126080819D02*
X88820000Y-125366533D01*
X88820000Y-125366533D02*
X89010476Y-126080819D01*
X89010476Y-126080819D02*
X89248572Y-125080819D01*
X89534286Y-125080819D02*
X90153333Y-125080819D01*
X90153333Y-125080819D02*
X89820000Y-125461771D01*
X89820000Y-125461771D02*
X89962857Y-125461771D01*
X89962857Y-125461771D02*
X90058095Y-125509390D01*
X90058095Y-125509390D02*
X90105714Y-125557009D01*
X90105714Y-125557009D02*
X90153333Y-125652247D01*
X90153333Y-125652247D02*
X90153333Y-125890342D01*
X90153333Y-125890342D02*
X90105714Y-125985580D01*
X90105714Y-125985580D02*
X90058095Y-126033200D01*
X90058095Y-126033200D02*
X89962857Y-126080819D01*
X89962857Y-126080819D02*
X89677143Y-126080819D01*
X89677143Y-126080819D02*
X89581905Y-126033200D01*
X89581905Y-126033200D02*
X89534286Y-125985580D01*
X129354819Y-168526666D02*
X128878628Y-168859999D01*
X129354819Y-169098094D02*
X128354819Y-169098094D01*
X128354819Y-169098094D02*
X128354819Y-168717142D01*
X128354819Y-168717142D02*
X128402438Y-168621904D01*
X128402438Y-168621904D02*
X128450057Y-168574285D01*
X128450057Y-168574285D02*
X128545295Y-168526666D01*
X128545295Y-168526666D02*
X128688152Y-168526666D01*
X128688152Y-168526666D02*
X128783390Y-168574285D01*
X128783390Y-168574285D02*
X128831009Y-168621904D01*
X128831009Y-168621904D02*
X128878628Y-168717142D01*
X128878628Y-168717142D02*
X128878628Y-169098094D01*
X128354819Y-168193332D02*
X128354819Y-167574285D01*
X128354819Y-167574285D02*
X128735771Y-167907618D01*
X128735771Y-167907618D02*
X128735771Y-167764761D01*
X128735771Y-167764761D02*
X128783390Y-167669523D01*
X128783390Y-167669523D02*
X128831009Y-167621904D01*
X128831009Y-167621904D02*
X128926247Y-167574285D01*
X128926247Y-167574285D02*
X129164342Y-167574285D01*
X129164342Y-167574285D02*
X129259580Y-167621904D01*
X129259580Y-167621904D02*
X129307200Y-167669523D01*
X129307200Y-167669523D02*
X129354819Y-167764761D01*
X129354819Y-167764761D02*
X129354819Y-168050475D01*
X129354819Y-168050475D02*
X129307200Y-168145713D01*
X129307200Y-168145713D02*
X129259580Y-168193332D01*
X157270295Y-159460475D02*
X156470295Y-159460475D01*
X156470295Y-159460475D02*
X156470295Y-159269999D01*
X156470295Y-159269999D02*
X156508390Y-159155713D01*
X156508390Y-159155713D02*
X156584580Y-159079523D01*
X156584580Y-159079523D02*
X156660771Y-159041428D01*
X156660771Y-159041428D02*
X156813152Y-159003332D01*
X156813152Y-159003332D02*
X156927438Y-159003332D01*
X156927438Y-159003332D02*
X157079819Y-159041428D01*
X157079819Y-159041428D02*
X157156009Y-159079523D01*
X157156009Y-159079523D02*
X157232200Y-159155713D01*
X157232200Y-159155713D02*
X157270295Y-159269999D01*
X157270295Y-159269999D02*
X157270295Y-159460475D01*
X156736961Y-158317618D02*
X157270295Y-158317618D01*
X156432200Y-158508094D02*
X157003628Y-158698571D01*
X157003628Y-158698571D02*
X157003628Y-158203332D01*
X107333333Y-138354819D02*
X107000000Y-137878628D01*
X106761905Y-138354819D02*
X106761905Y-137354819D01*
X106761905Y-137354819D02*
X107142857Y-137354819D01*
X107142857Y-137354819D02*
X107238095Y-137402438D01*
X107238095Y-137402438D02*
X107285714Y-137450057D01*
X107285714Y-137450057D02*
X107333333Y-137545295D01*
X107333333Y-137545295D02*
X107333333Y-137688152D01*
X107333333Y-137688152D02*
X107285714Y-137783390D01*
X107285714Y-137783390D02*
X107238095Y-137831009D01*
X107238095Y-137831009D02*
X107142857Y-137878628D01*
X107142857Y-137878628D02*
X106761905Y-137878628D01*
X108285714Y-138354819D02*
X107714286Y-138354819D01*
X108000000Y-138354819D02*
X108000000Y-137354819D01*
X108000000Y-137354819D02*
X107904762Y-137497676D01*
X107904762Y-137497676D02*
X107809524Y-137592914D01*
X107809524Y-137592914D02*
X107714286Y-137640533D01*
X118026667Y-103527200D02*
X118169524Y-103574819D01*
X118169524Y-103574819D02*
X118407619Y-103574819D01*
X118407619Y-103574819D02*
X118502857Y-103527200D01*
X118502857Y-103527200D02*
X118550476Y-103479580D01*
X118550476Y-103479580D02*
X118598095Y-103384342D01*
X118598095Y-103384342D02*
X118598095Y-103289104D01*
X118598095Y-103289104D02*
X118550476Y-103193866D01*
X118550476Y-103193866D02*
X118502857Y-103146247D01*
X118502857Y-103146247D02*
X118407619Y-103098628D01*
X118407619Y-103098628D02*
X118217143Y-103051009D01*
X118217143Y-103051009D02*
X118121905Y-103003390D01*
X118121905Y-103003390D02*
X118074286Y-102955771D01*
X118074286Y-102955771D02*
X118026667Y-102860533D01*
X118026667Y-102860533D02*
X118026667Y-102765295D01*
X118026667Y-102765295D02*
X118074286Y-102670057D01*
X118074286Y-102670057D02*
X118121905Y-102622438D01*
X118121905Y-102622438D02*
X118217143Y-102574819D01*
X118217143Y-102574819D02*
X118455238Y-102574819D01*
X118455238Y-102574819D02*
X118598095Y-102622438D01*
X118931429Y-102574819D02*
X119169524Y-103574819D01*
X119169524Y-103574819D02*
X119360000Y-102860533D01*
X119360000Y-102860533D02*
X119550476Y-103574819D01*
X119550476Y-103574819D02*
X119788572Y-102574819D01*
X120693333Y-103574819D02*
X120121905Y-103574819D01*
X120407619Y-103574819D02*
X120407619Y-102574819D01*
X120407619Y-102574819D02*
X120312381Y-102717676D01*
X120312381Y-102717676D02*
X120217143Y-102812914D01*
X120217143Y-102812914D02*
X120121905Y-102860533D01*
X87386667Y-146333200D02*
X87529524Y-146380819D01*
X87529524Y-146380819D02*
X87767619Y-146380819D01*
X87767619Y-146380819D02*
X87862857Y-146333200D01*
X87862857Y-146333200D02*
X87910476Y-146285580D01*
X87910476Y-146285580D02*
X87958095Y-146190342D01*
X87958095Y-146190342D02*
X87958095Y-146095104D01*
X87958095Y-146095104D02*
X87910476Y-145999866D01*
X87910476Y-145999866D02*
X87862857Y-145952247D01*
X87862857Y-145952247D02*
X87767619Y-145904628D01*
X87767619Y-145904628D02*
X87577143Y-145857009D01*
X87577143Y-145857009D02*
X87481905Y-145809390D01*
X87481905Y-145809390D02*
X87434286Y-145761771D01*
X87434286Y-145761771D02*
X87386667Y-145666533D01*
X87386667Y-145666533D02*
X87386667Y-145571295D01*
X87386667Y-145571295D02*
X87434286Y-145476057D01*
X87434286Y-145476057D02*
X87481905Y-145428438D01*
X87481905Y-145428438D02*
X87577143Y-145380819D01*
X87577143Y-145380819D02*
X87815238Y-145380819D01*
X87815238Y-145380819D02*
X87958095Y-145428438D01*
X88291429Y-145380819D02*
X88529524Y-146380819D01*
X88529524Y-146380819D02*
X88720000Y-145666533D01*
X88720000Y-145666533D02*
X88910476Y-146380819D01*
X88910476Y-146380819D02*
X89148572Y-145380819D01*
X89958095Y-145714152D02*
X89958095Y-146380819D01*
X89720000Y-145333200D02*
X89481905Y-146047485D01*
X89481905Y-146047485D02*
X90100952Y-146047485D01*
X136462295Y-169210475D02*
X135662295Y-169210475D01*
X135662295Y-169210475D02*
X135662295Y-169019999D01*
X135662295Y-169019999D02*
X135700390Y-168905713D01*
X135700390Y-168905713D02*
X135776580Y-168829523D01*
X135776580Y-168829523D02*
X135852771Y-168791428D01*
X135852771Y-168791428D02*
X136005152Y-168753332D01*
X136005152Y-168753332D02*
X136119438Y-168753332D01*
X136119438Y-168753332D02*
X136271819Y-168791428D01*
X136271819Y-168791428D02*
X136348009Y-168829523D01*
X136348009Y-168829523D02*
X136424200Y-168905713D01*
X136424200Y-168905713D02*
X136462295Y-169019999D01*
X136462295Y-169019999D02*
X136462295Y-169210475D01*
X135662295Y-168486666D02*
X135662295Y-167991428D01*
X135662295Y-167991428D02*
X135967057Y-168258094D01*
X135967057Y-168258094D02*
X135967057Y-168143809D01*
X135967057Y-168143809D02*
X136005152Y-168067618D01*
X136005152Y-168067618D02*
X136043247Y-168029523D01*
X136043247Y-168029523D02*
X136119438Y-167991428D01*
X136119438Y-167991428D02*
X136309914Y-167991428D01*
X136309914Y-167991428D02*
X136386104Y-168029523D01*
X136386104Y-168029523D02*
X136424200Y-168067618D01*
X136424200Y-168067618D02*
X136462295Y-168143809D01*
X136462295Y-168143809D02*
X136462295Y-168372380D01*
X136462295Y-168372380D02*
X136424200Y-168448571D01*
X136424200Y-168448571D02*
X136386104Y-168486666D01*
X139166667Y-103707200D02*
X139309524Y-103754819D01*
X139309524Y-103754819D02*
X139547619Y-103754819D01*
X139547619Y-103754819D02*
X139642857Y-103707200D01*
X139642857Y-103707200D02*
X139690476Y-103659580D01*
X139690476Y-103659580D02*
X139738095Y-103564342D01*
X139738095Y-103564342D02*
X139738095Y-103469104D01*
X139738095Y-103469104D02*
X139690476Y-103373866D01*
X139690476Y-103373866D02*
X139642857Y-103326247D01*
X139642857Y-103326247D02*
X139547619Y-103278628D01*
X139547619Y-103278628D02*
X139357143Y-103231009D01*
X139357143Y-103231009D02*
X139261905Y-103183390D01*
X139261905Y-103183390D02*
X139214286Y-103135771D01*
X139214286Y-103135771D02*
X139166667Y-103040533D01*
X139166667Y-103040533D02*
X139166667Y-102945295D01*
X139166667Y-102945295D02*
X139214286Y-102850057D01*
X139214286Y-102850057D02*
X139261905Y-102802438D01*
X139261905Y-102802438D02*
X139357143Y-102754819D01*
X139357143Y-102754819D02*
X139595238Y-102754819D01*
X139595238Y-102754819D02*
X139738095Y-102802438D01*
X140071429Y-102754819D02*
X140309524Y-103754819D01*
X140309524Y-103754819D02*
X140500000Y-103040533D01*
X140500000Y-103040533D02*
X140690476Y-103754819D01*
X140690476Y-103754819D02*
X140928572Y-102754819D01*
X141261905Y-102850057D02*
X141309524Y-102802438D01*
X141309524Y-102802438D02*
X141404762Y-102754819D01*
X141404762Y-102754819D02*
X141642857Y-102754819D01*
X141642857Y-102754819D02*
X141738095Y-102802438D01*
X141738095Y-102802438D02*
X141785714Y-102850057D01*
X141785714Y-102850057D02*
X141833333Y-102945295D01*
X141833333Y-102945295D02*
X141833333Y-103040533D01*
X141833333Y-103040533D02*
X141785714Y-103183390D01*
X141785714Y-103183390D02*
X141214286Y-103754819D01*
X141214286Y-103754819D02*
X141833333Y-103754819D01*
X153073333Y-169004819D02*
X152740000Y-168528628D01*
X152501905Y-169004819D02*
X152501905Y-168004819D01*
X152501905Y-168004819D02*
X152882857Y-168004819D01*
X152882857Y-168004819D02*
X152978095Y-168052438D01*
X152978095Y-168052438D02*
X153025714Y-168100057D01*
X153025714Y-168100057D02*
X153073333Y-168195295D01*
X153073333Y-168195295D02*
X153073333Y-168338152D01*
X153073333Y-168338152D02*
X153025714Y-168433390D01*
X153025714Y-168433390D02*
X152978095Y-168481009D01*
X152978095Y-168481009D02*
X152882857Y-168528628D01*
X152882857Y-168528628D02*
X152501905Y-168528628D01*
X153930476Y-168338152D02*
X153930476Y-169004819D01*
X153692381Y-167957200D02*
X153454286Y-168671485D01*
X153454286Y-168671485D02*
X154073333Y-168671485D01*
D11*
X128916190Y-125153479D02*
X128916190Y-125667526D01*
X128916190Y-125667526D02*
X128946428Y-125728002D01*
X128946428Y-125728002D02*
X128976666Y-125758241D01*
X128976666Y-125758241D02*
X129037142Y-125788479D01*
X129037142Y-125788479D02*
X129158095Y-125788479D01*
X129158095Y-125788479D02*
X129218571Y-125758241D01*
X129218571Y-125758241D02*
X129248809Y-125728002D01*
X129248809Y-125728002D02*
X129279047Y-125667526D01*
X129279047Y-125667526D02*
X129279047Y-125153479D01*
X129914047Y-125788479D02*
X129551190Y-125788479D01*
X129732618Y-125788479D02*
X129732618Y-125153479D01*
X129732618Y-125153479D02*
X129672142Y-125244193D01*
X129672142Y-125244193D02*
X129611666Y-125304669D01*
X129611666Y-125304669D02*
X129551190Y-125334907D01*
D10*
X107019524Y-144454295D02*
X107019524Y-143654295D01*
X107019524Y-143654295D02*
X107210000Y-143654295D01*
X107210000Y-143654295D02*
X107324286Y-143692390D01*
X107324286Y-143692390D02*
X107400476Y-143768580D01*
X107400476Y-143768580D02*
X107438571Y-143844771D01*
X107438571Y-143844771D02*
X107476667Y-143997152D01*
X107476667Y-143997152D02*
X107476667Y-144111438D01*
X107476667Y-144111438D02*
X107438571Y-144263819D01*
X107438571Y-144263819D02*
X107400476Y-144340009D01*
X107400476Y-144340009D02*
X107324286Y-144416200D01*
X107324286Y-144416200D02*
X107210000Y-144454295D01*
X107210000Y-144454295D02*
X107019524Y-144454295D01*
X108238571Y-144454295D02*
X107781428Y-144454295D01*
X108010000Y-144454295D02*
X108010000Y-143654295D01*
X108010000Y-143654295D02*
X107933809Y-143768580D01*
X107933809Y-143768580D02*
X107857619Y-143844771D01*
X107857619Y-143844771D02*
X107781428Y-143882866D01*
X118779524Y-161454295D02*
X118779524Y-160654295D01*
X118779524Y-160654295D02*
X118970000Y-160654295D01*
X118970000Y-160654295D02*
X119084286Y-160692390D01*
X119084286Y-160692390D02*
X119160476Y-160768580D01*
X119160476Y-160768580D02*
X119198571Y-160844771D01*
X119198571Y-160844771D02*
X119236667Y-160997152D01*
X119236667Y-160997152D02*
X119236667Y-161111438D01*
X119236667Y-161111438D02*
X119198571Y-161263819D01*
X119198571Y-161263819D02*
X119160476Y-161340009D01*
X119160476Y-161340009D02*
X119084286Y-161416200D01*
X119084286Y-161416200D02*
X118970000Y-161454295D01*
X118970000Y-161454295D02*
X118779524Y-161454295D01*
X119541428Y-160730485D02*
X119579524Y-160692390D01*
X119579524Y-160692390D02*
X119655714Y-160654295D01*
X119655714Y-160654295D02*
X119846190Y-160654295D01*
X119846190Y-160654295D02*
X119922381Y-160692390D01*
X119922381Y-160692390D02*
X119960476Y-160730485D01*
X119960476Y-160730485D02*
X119998571Y-160806676D01*
X119998571Y-160806676D02*
X119998571Y-160882866D01*
X119998571Y-160882866D02*
X119960476Y-160997152D01*
X119960476Y-160997152D02*
X119503333Y-161454295D01*
X119503333Y-161454295D02*
X119998571Y-161454295D01*
D12*
%TO.C,SW3*%
X81835000Y-126515000D02*
X95805000Y-126515000D01*
X81835000Y-140485000D02*
X81835000Y-126515000D01*
X95805000Y-126515000D02*
X95805000Y-140485000D01*
X95805000Y-140485000D02*
X81835000Y-140485000D01*
%TO.C,R3*%
X130780000Y-170480000D02*
X130780000Y-166640000D01*
X132620000Y-170480000D02*
X132620000Y-166640000D01*
D13*
%TO.C,D4*%
X154766000Y-156330000D02*
X151634000Y-156330000D01*
X154766000Y-156330000D02*
G75*
G02*
X151634000Y-156330000I-1566000J-2506124D01*
G01*
D14*
X153300000Y-155630000D02*
G75*
G02*
X153100000Y-155630000I-100000J0D01*
G01*
X153100000Y-155630000D02*
G75*
G02*
X153300000Y-155630000I100000J0D01*
G01*
D12*
%TO.C,R1*%
X105380000Y-138880000D02*
X109220000Y-138880000D01*
X105380000Y-140720000D02*
X109220000Y-140720000D01*
%TO.C,SW1*%
X112735000Y-104615000D02*
X126705000Y-104615000D01*
X112735000Y-118585000D02*
X112735000Y-104615000D01*
X126705000Y-104615000D02*
X126705000Y-118585000D01*
X126705000Y-118585000D02*
X112735000Y-118585000D01*
%TO.C,SW4*%
X81735000Y-146815000D02*
X95705000Y-146815000D01*
X81735000Y-160785000D02*
X81735000Y-146815000D01*
X95705000Y-146815000D02*
X95705000Y-160785000D01*
X95705000Y-160785000D02*
X81735000Y-160785000D01*
D13*
%TO.C,D3*%
X138634000Y-170990000D02*
X141766000Y-170990000D01*
X138634000Y-170990000D02*
G75*
G02*
X141766000Y-170990000I1566000J2506124D01*
G01*
D14*
X140300000Y-171690000D02*
G75*
G02*
X140100000Y-171690000I-100000J0D01*
G01*
X140100000Y-171690000D02*
G75*
G02*
X140300000Y-171690000I100000J0D01*
G01*
D12*
%TO.C,R2*%
X117740000Y-155880000D02*
X121580000Y-155880000D01*
X117740000Y-157720000D02*
X121580000Y-157720000D01*
%TO.C,SW2*%
X133435000Y-104515000D02*
X147405000Y-104515000D01*
X133435000Y-118485000D02*
X133435000Y-104515000D01*
X147405000Y-104515000D02*
X147405000Y-118485000D01*
X147405000Y-118485000D02*
X133435000Y-118485000D01*
%TO.C,R4*%
X155160000Y-165710000D02*
X151320000Y-165710000D01*
X155160000Y-167550000D02*
X151320000Y-167550000D01*
D13*
%TO.C,U1*%
X129010000Y-146009000D02*
X129010000Y-128864000D01*
X130915000Y-147914000D02*
X144885000Y-147914000D01*
X133405000Y-126959000D02*
X133408728Y-126048728D01*
X133908728Y-125549000D02*
X141904000Y-125549000D01*
X142404000Y-126049000D02*
X142404000Y-126959000D01*
D15*
X144885000Y-126959000D02*
X130915000Y-126959000D01*
D13*
X144885000Y-126959000D02*
X130915000Y-126959000D01*
X146790000Y-146009000D02*
X146790000Y-128864000D01*
X129010000Y-128864000D02*
G75*
G02*
X130915000Y-126959000I1905001J-1D01*
G01*
X130915000Y-147914000D02*
G75*
G02*
X129010000Y-146009000I1J1905001D01*
G01*
X133408728Y-126048728D02*
G75*
G02*
X133908728Y-125549001I500018J-291D01*
G01*
X141904000Y-125549000D02*
G75*
G02*
X142404000Y-126049000I0J-500000D01*
G01*
X144885000Y-126959000D02*
G75*
G02*
X146790000Y-128864000I0J-1905000D01*
G01*
X146790000Y-146009000D02*
G75*
G02*
X144885000Y-147914000I-1905000J0D01*
G01*
D16*
X129202000Y-127200000D02*
G75*
G02*
X128698000Y-127200000I-252000J0D01*
G01*
X128698000Y-127200000D02*
G75*
G02*
X129202000Y-127200000I252000J0D01*
G01*
X130345000Y-128080000D02*
G75*
G02*
X129841000Y-128080000I-252000J0D01*
G01*
X129841000Y-128080000D02*
G75*
G02*
X130345000Y-128080000I252000J0D01*
G01*
D13*
%TO.C,D1*%
X105070000Y-146234000D02*
X105070000Y-149366000D01*
X105070000Y-146234000D02*
G75*
G02*
X105070000Y-149366000I2506124J-1566000D01*
G01*
D14*
X104470000Y-147800000D02*
G75*
G02*
X104270000Y-147800000I-100000J0D01*
G01*
X104270000Y-147800000D02*
G75*
G02*
X104470000Y-147800000I100000J0D01*
G01*
D13*
%TO.C,D2*%
X116830000Y-163234000D02*
X116830000Y-166366000D01*
X116830000Y-163234000D02*
G75*
G02*
X116830000Y-166366000I2506124J-1566000D01*
G01*
D14*
X116230000Y-164800000D02*
G75*
G02*
X116030000Y-164800000I-100000J0D01*
G01*
X116030000Y-164800000D02*
G75*
G02*
X116230000Y-164800000I100000J0D01*
G01*
%TD*%
M02*
