%TF.GenerationSoftware,KiCad,Pcbnew,9.0.3*%
%TF.CreationDate,2025-07-30T12:58:09-07:00*%
%TF.ProjectId,apollo_pcb,61706f6c-6c6f-45f7-9063-622e6b696361,rev?*%
%TF.SameCoordinates,Original*%
%TF.FileFunction,Copper,L1,Top*%
%TF.FilePolarity,Positive*%
%FSLAX46Y46*%
G04 Gerber Fmt 4.6, Leading zero omitted, Abs format (unit mm)*
G04 Created by KiCad (PCBNEW 9.0.3) date 2025-07-30 12:58:09*
%MOMM*%
%LPD*%
G01*
G04 APERTURE LIST*
G04 Aperture macros list*
%AMRoundRect*
0 Rectangle with rounded corners*
0 $1 Rounding radius*
0 $2 $3 $4 $5 $6 $7 $8 $9 X,Y pos of 4 corners*
0 Add a 4 corners polygon primitive as box body*
4,1,4,$2,$3,$4,$5,$6,$7,$8,$9,$2,$3,0*
0 Add four circle primitives for the rounded corners*
1,1,$1+$1,$2,$3*
1,1,$1+$1,$4,$5*
1,1,$1+$1,$6,$7*
1,1,$1+$1,$8,$9*
0 Add four rect primitives between the rounded corners*
20,1,$1+$1,$2,$3,$4,$5,0*
20,1,$1+$1,$4,$5,$6,$7,0*
20,1,$1+$1,$6,$7,$8,$9,0*
20,1,$1+$1,$8,$9,$2,$3,0*%
G04 Aperture macros list end*
%TA.AperFunction,ComponentPad*%
%ADD10C,2.200000*%
%TD*%
%TA.AperFunction,ComponentPad*%
%ADD11C,1.400000*%
%TD*%
%TA.AperFunction,ComponentPad*%
%ADD12C,1.815000*%
%TD*%
%TA.AperFunction,ComponentPad*%
%ADD13R,1.815000X1.815000*%
%TD*%
%TA.AperFunction,SMDPad,CuDef*%
%ADD14RoundRect,0.152400X1.063600X0.609600X-1.063600X0.609600X-1.063600X-0.609600X1.063600X-0.609600X0*%
%TD*%
%TA.AperFunction,ComponentPad*%
%ADD15C,1.524000*%
%TD*%
%TA.AperFunction,SMDPad,CuDef*%
%ADD16RoundRect,0.152400X-1.063600X-0.609600X1.063600X-0.609600X1.063600X0.609600X-1.063600X0.609600X0*%
%TD*%
%TA.AperFunction,Conductor*%
%ADD17C,0.200000*%
%TD*%
G04 APERTURE END LIST*
D10*
%TO.P,SW3,1,1*%
%TO.N,button3*%
X91360000Y-128420000D03*
%TO.P,SW3,2,2*%
%TO.N,GND*%
X85010000Y-130960000D03*
%TD*%
D11*
%TO.P,R3,1*%
%TO.N,Net-(D3-PadA)*%
X131700000Y-171100000D03*
%TO.P,R3,2*%
%TO.N,LED3*%
X131700000Y-166020000D03*
%TD*%
D12*
%TO.P,D4,A*%
%TO.N,Net-(D4-PadA)*%
X153200000Y-160100000D03*
D13*
%TO.P,D4,C*%
%TO.N,GND*%
X153200000Y-157560000D03*
%TD*%
D11*
%TO.P,R1,1*%
%TO.N,Net-(D1-PadA)*%
X104760000Y-139800000D03*
%TO.P,R1,2*%
%TO.N,LED1*%
X109840000Y-139800000D03*
%TD*%
D10*
%TO.P,SW1,1,1*%
%TO.N,button1*%
X122260000Y-106520000D03*
%TO.P,SW1,2,2*%
%TO.N,GND*%
X115910000Y-109060000D03*
%TD*%
%TO.P,SW4,1,1*%
%TO.N,button4*%
X91260000Y-148720000D03*
%TO.P,SW4,2,2*%
%TO.N,GND*%
X84910000Y-151260000D03*
%TD*%
D12*
%TO.P,D3,A*%
%TO.N,Net-(D3-PadA)*%
X140200000Y-167220000D03*
D13*
%TO.P,D3,C*%
%TO.N,GND*%
X140200000Y-169760000D03*
%TD*%
D11*
%TO.P,R2,1*%
%TO.N,Net-(D2-PadA)*%
X117120000Y-156800000D03*
%TO.P,R2,2*%
%TO.N,LED2*%
X122200000Y-156800000D03*
%TD*%
D10*
%TO.P,SW2,1,1*%
%TO.N,button2*%
X142960000Y-106420000D03*
%TO.P,SW2,2,2*%
%TO.N,GND*%
X136610000Y-108960000D03*
%TD*%
D11*
%TO.P,R4,1*%
%TO.N,Net-(D4-PadA)*%
X155780000Y-166630000D03*
%TO.P,R4,2*%
%TO.N,LED4*%
X150700000Y-166630000D03*
%TD*%
D14*
%TO.P,U1,1,GPIO26/ADC0/A0*%
%TO.N,button1*%
X129445000Y-129880000D03*
D15*
X130280000Y-129880000D03*
D14*
%TO.P,U1,2,GPIO27/ADC1/A1*%
%TO.N,button2*%
X129445000Y-132420000D03*
D15*
X130280000Y-132420000D03*
D14*
%TO.P,U1,3,GPIO28/ADC2/A2*%
%TO.N,button3*%
X129445000Y-134960000D03*
D15*
X130280000Y-134960000D03*
D14*
%TO.P,U1,4,GPIO29/ADC3/A3*%
%TO.N,button4*%
X129445000Y-137500000D03*
D15*
X130280000Y-137500000D03*
D14*
%TO.P,U1,5,GPIO6/SDA*%
%TO.N,LED1*%
X129445000Y-140040000D03*
D15*
X130280000Y-140040000D03*
D14*
%TO.P,U1,6,GPIO7/SCL*%
%TO.N,LED2*%
X129445000Y-142580000D03*
D15*
X130280000Y-142580000D03*
D14*
%TO.P,U1,7,GPIO0/TX*%
%TO.N,LED3*%
X129445000Y-145120000D03*
D15*
X130280000Y-145120000D03*
%TO.P,U1,8,GPIO1/RX*%
%TO.N,LED4*%
X145520000Y-145120000D03*
D16*
X146355000Y-145120000D03*
D15*
%TO.P,U1,9,GPIO2/SCK*%
%TO.N,unconnected-(U1-GPIO2{slash}SCK-Pad9)*%
X145520000Y-142580000D03*
D16*
X146355000Y-142580000D03*
D15*
%TO.P,U1,10,GPIO4/MISO*%
%TO.N,unconnected-(U1-GPIO4{slash}MISO-Pad10)*%
X145520000Y-140040000D03*
D16*
X146355000Y-140040000D03*
D15*
%TO.P,U1,11,GPIO3/MOSI*%
%TO.N,unconnected-(U1-GPIO3{slash}MOSI-Pad11)*%
X145520000Y-137500000D03*
D16*
X146355000Y-137500000D03*
D15*
%TO.P,U1,12,3V3*%
%TO.N,unconnected-(U1-3V3-Pad12)*%
X145520000Y-134960000D03*
D16*
X146355000Y-134960000D03*
D15*
%TO.P,U1,13,GND*%
%TO.N,GND*%
X145520000Y-132420000D03*
D16*
X146355000Y-132420000D03*
D15*
%TO.P,U1,14,VBUS*%
%TO.N,unconnected-(U1-VBUS-Pad14)*%
X145520000Y-129880000D03*
D16*
X146355000Y-129880000D03*
%TD*%
D12*
%TO.P,D1,A*%
%TO.N,Net-(D1-PadA)*%
X108840000Y-147800000D03*
D13*
%TO.P,D1,C*%
%TO.N,GND*%
X106300000Y-147800000D03*
%TD*%
D12*
%TO.P,D2,A*%
%TO.N,Net-(D2-PadA)*%
X120600000Y-164800000D03*
D13*
%TO.P,D2,C*%
%TO.N,GND*%
X118060000Y-164800000D03*
%TD*%
D17*
%TO.N,GND*%
X104520000Y-151260000D02*
X106630000Y-153370000D01*
X106630000Y-153370000D02*
X118060000Y-164800000D01*
X106300000Y-147800000D02*
X106300000Y-153040000D01*
X84910000Y-151260000D02*
X104520000Y-151260000D01*
X106300000Y-153040000D02*
X106630000Y-153370000D01*
X153200000Y-139265000D02*
X146355000Y-132420000D01*
X153200000Y-157560000D02*
X153200000Y-139265000D01*
X85010000Y-151160000D02*
X85010000Y-130960000D01*
X84910000Y-151260000D02*
X85010000Y-151160000D01*
%TO.N,Net-(D1-PadA)*%
X104760000Y-139800000D02*
X104760000Y-143720000D01*
X104760000Y-143720000D02*
X108840000Y-147800000D01*
%TO.N,Net-(D2-PadA)*%
X120600000Y-164800000D02*
X120600000Y-160280000D01*
X120600000Y-160280000D02*
X117120000Y-156800000D01*
%TO.N,Net-(D3-PadA)*%
X135580000Y-167220000D02*
X131700000Y-171100000D01*
X140200000Y-167220000D02*
X135580000Y-167220000D01*
X140200000Y-167220000D02*
X140200000Y-167100000D01*
%TO.N,LED1*%
X109840000Y-139800000D02*
X130040000Y-139800000D01*
X130040000Y-139800000D02*
X130280000Y-140040000D01*
%TO.N,LED2*%
X122200000Y-156800000D02*
X121500000Y-156800000D01*
X121500000Y-156800000D02*
X121500000Y-150282370D01*
X121900000Y-156800000D02*
X121800000Y-156900000D01*
X122200000Y-156800000D02*
X121900000Y-156800000D01*
X121500000Y-150282370D02*
X129202370Y-142580000D01*
X129202370Y-142580000D02*
X130280000Y-142580000D01*
%TO.N,LED3*%
X131700000Y-166020000D02*
X131700000Y-146540000D01*
X131700000Y-146540000D02*
X130280000Y-145120000D01*
%TO.N,button1*%
X130280000Y-114540000D02*
X130280000Y-129880000D01*
X122260000Y-106520000D02*
X130280000Y-114540000D01*
%TO.N,button2*%
X142960000Y-122240000D02*
X132780000Y-132420000D01*
X132780000Y-132420000D02*
X130280000Y-132420000D01*
X142960000Y-106420000D02*
X142960000Y-122240000D01*
%TO.N,button3*%
X122905000Y-128420000D02*
X129445000Y-134960000D01*
X91360000Y-128420000D02*
X122905000Y-128420000D01*
%TO.N,Net-(D4-PadA)*%
X153200000Y-164050000D02*
X155780000Y-166630000D01*
X153200000Y-160100000D02*
X153200000Y-164050000D01*
%TO.N,LED4*%
X150700000Y-166630000D02*
X150700000Y-166300000D01*
X150700000Y-166300000D02*
X145520000Y-161120000D01*
X145520000Y-161120000D02*
X145520000Y-145120000D01*
%TD*%
M02*
