%TF.GenerationSoftware,KiCad,Pcbnew,9.0.3*%
%TF.CreationDate,2025-07-30T12:58:10-07:00*%
%TF.ProjectId,apollo_pcb,61706f6c-6c6f-45f7-9063-622e6b696361,rev?*%
%TF.SameCoordinates,Original*%
%TF.FileFunction,Soldermask,Bot*%
%TF.FilePolarity,Negative*%
%FSLAX46Y46*%
G04 Gerber Fmt 4.6, Leading zero omitted, Abs format (unit mm)*
G04 Created by KiCad (PCBNEW 9.0.3) date 2025-07-30 12:58:10*
%MOMM*%
%LPD*%
G01*
G04 APERTURE LIST*
G04 Aperture macros list*
%AMRoundRect*
0 Rectangle with rounded corners*
0 $1 Rounding radius*
0 $2 $3 $4 $5 $6 $7 $8 $9 X,Y pos of 4 corners*
0 Add a 4 corners polygon primitive as box body*
4,1,4,$2,$3,$4,$5,$6,$7,$8,$9,$2,$3,0*
0 Add four circle primitives for the rounded corners*
1,1,$1+$1,$2,$3*
1,1,$1+$1,$4,$5*
1,1,$1+$1,$6,$7*
1,1,$1+$1,$8,$9*
0 Add four rect primitives between the rounded corners*
20,1,$1+$1,$2,$3,$4,$5,0*
20,1,$1+$1,$4,$5,$6,$7,0*
20,1,$1+$1,$6,$7,$8,$9,0*
20,1,$1+$1,$8,$9,$2,$3,0*%
G04 Aperture macros list end*
%ADD10C,1.700000*%
%ADD11C,4.000000*%
%ADD12C,2.200000*%
%ADD13C,1.400000*%
%ADD14C,2.019000*%
%ADD15RoundRect,0.102000X-0.907500X0.907500X-0.907500X-0.907500X0.907500X-0.907500X0.907500X0.907500X0*%
%ADD16RoundRect,0.102000X0.907500X-0.907500X0.907500X0.907500X-0.907500X0.907500X-0.907500X-0.907500X0*%
%ADD17C,1.524000*%
%ADD18RoundRect,0.102000X-0.907500X-0.907500X0.907500X-0.907500X0.907500X0.907500X-0.907500X0.907500X0*%
G04 APERTURE END LIST*
D10*
%TO.C,SW3*%
X83740000Y-133500000D03*
D11*
X88820000Y-133500000D03*
D10*
X93900000Y-133500000D03*
D12*
X91360000Y-128420000D03*
X85010000Y-130960000D03*
%TD*%
D13*
%TO.C,R3*%
X131700000Y-171100000D03*
X131700000Y-166020000D03*
%TD*%
D14*
%TO.C,D4*%
X153200000Y-160100000D03*
D15*
X153200000Y-157560000D03*
%TD*%
D13*
%TO.C,R1*%
X104760000Y-139800000D03*
X109840000Y-139800000D03*
%TD*%
D10*
%TO.C,SW1*%
X114640000Y-111600000D03*
D11*
X119720000Y-111600000D03*
D10*
X124800000Y-111600000D03*
D12*
X122260000Y-106520000D03*
X115910000Y-109060000D03*
%TD*%
D10*
%TO.C,SW4*%
X83640000Y-153800000D03*
D11*
X88720000Y-153800000D03*
D10*
X93800000Y-153800000D03*
D12*
X91260000Y-148720000D03*
X84910000Y-151260000D03*
%TD*%
D14*
%TO.C,D3*%
X140200000Y-167220000D03*
D16*
X140200000Y-169760000D03*
%TD*%
D13*
%TO.C,R2*%
X117120000Y-156800000D03*
X122200000Y-156800000D03*
%TD*%
D10*
%TO.C,SW2*%
X135340000Y-111500000D03*
D11*
X140420000Y-111500000D03*
D10*
X145500000Y-111500000D03*
D12*
X142960000Y-106420000D03*
X136610000Y-108960000D03*
%TD*%
D13*
%TO.C,R4*%
X155780000Y-166630000D03*
X150700000Y-166630000D03*
%TD*%
D17*
%TO.C,U1*%
X130280000Y-129880000D03*
X130280000Y-132420000D03*
X130280000Y-134960000D03*
X130280000Y-137500000D03*
X130280000Y-140040000D03*
X130280000Y-142580000D03*
X130280000Y-145120000D03*
X145520000Y-145120000D03*
X145520000Y-142580000D03*
X145520000Y-140040000D03*
X145520000Y-137500000D03*
X145520000Y-134960000D03*
X145520000Y-132420000D03*
X145520000Y-129880000D03*
%TD*%
D14*
%TO.C,D1*%
X108840000Y-147800000D03*
D18*
X106300000Y-147800000D03*
%TD*%
D14*
%TO.C,D2*%
X120600000Y-164800000D03*
D18*
X118060000Y-164800000D03*
%TD*%
M02*
